<svg id="Calque_1" data-name="Calque 1" xmlns="http://www.w3.org/2000/svg" xmlns:xlink="http://www.w3.org/1999/xlink" viewBox="0 0 375 497"><defs><style>.cls-1,.cls-19{fill:none;}.cls-2{clip-path:url(#clip-path);}.cls-3,.cls-6{fill:#fdd5c4;}.cls-14,.cls-3,.cls-6,.cls-8{stroke:#fcaf97;}.cls-10,.cls-11,.cls-14,.cls-15,.cls-19,.cls-3,.cls-6,.cls-8,.cls-9{stroke-miterlimit:10;}.cls-4{fill:#723730;}.cls-5{fill:#2c5ca7;}.cls-6{stroke-width:2px;}.cls-7{fill:#8c5248;}.cls-14,.cls-8{fill:#fcaf97;}.cls-10,.cls-11,.cls-8,.cls-9{stroke-width:0.97px;}.cls-12,.cls-9{fill:#fff;}.cls-9{stroke:#fff;}.cls-10{fill:#587176;stroke:#587176;}.cls-11{stroke:#000;}.cls-13,.cls-15{fill:#cc725a;}.cls-14{stroke-width:0.47px;}.cls-15{stroke:#cc725a;stroke-width:0.94px;}.cls-16{fill:#f77799;}.cls-17{fill:#3f3f3f;}.cls-18{fill:#dd1f1f;}.cls-19{stroke:#2c5ca7;stroke-linecap:round;stroke-width:1.31px;}</style><clipPath id="clip-path"><rect id="_Rectangle_" data-name="&lt;Rectangle&gt;" class="cls-1" width="375" height="497"/></clipPath></defs><title>american-girl</title><g id="_Ecrêter_le_groupe_" data-name="&lt;Ecrêter le groupe&gt;"><g class="cls-2"><path id="_Tracé_" data-name="&lt;Tracé&gt;" class="cls-3" d="M322.8,418.5s-4.83,86-3.64,96.16,12.61,97.83,13.21,131.84h-37.3s-15.95-84.91-14-129.66c1.74-40.64-1.2-98.34-1.2-98.34Z"/><path id="_Tracé_2" data-name="&lt;Tracé&gt;" class="cls-3" d="M61.42,418.5s4.83,86,3.64,96.16S52.45,612.49,51.85,646.5h37.3s15.95-84.91,14-129.66c-1.74-40.64,1.2-98.34,1.2-98.34Z"/><polygon id="_Tracé_3" data-name="&lt;Tracé&gt;" class="cls-4" points="121.36 213.96 118.88 321.57 274.18 317.09 278.21 209.14 121.36 213.96"/><path id="_Tracé_4" data-name="&lt;Tracé&gt;" class="cls-5" d="M214.21,640H100.53s10.74-83.51,11.34-122.3-11.63-89.35-11.63-89.35-53.7-11.14-53.4-14.61,9.57-72.95,16.73-83.45,61.5-21.13,69.56-24.71,9.26-2.58,9.26-2.58H243.07s1.21-1,9.27,2.57,62.4,14.07,69.56,24.57,16.43,80,16.73,83.51-53.4,14.61-53.4,14.61S273,478.9,273.6,517.69,284.94,640,284.94,640H214.21Z"/><path id="_Tracé_5" data-name="&lt;Tracé&gt;" class="cls-3" d="M226.93,249.51s-9,41.18,0,46.55a192.3,192.3,0,0,0,18.35,9.54s3.14,37.9-53,37.9h.25c-56.17,0-53-37.9-53-37.9a136.92,136.92,0,0,0,18.35-9c9-5.38,0-46.81,0-46.81"/><path id="_Tracé_6" data-name="&lt;Tracé&gt;" class="cls-6" d="M268.79,133.32s-2.48,82.62-6.6,93.74S244.75,257,219.34,275c-10.92,7-26.37,7-26.37,7h-.21s-15.45,0-26.37-7c-24.39-18-38.74-36.71-42.86-47.84s-6.59-93.79-6.59-93.79,8.46-48.23,76.14-48.23S268.79,133.32,268.79,133.32Z"/><path id="_Tracé_7" data-name="&lt;Tracé&gt;" class="cls-7" d="M131.41,155.52a30,30,0,0,1,18-2.32c10.34,1.79,25.74,4.65,29.15,4.29,0,0,.65-3.26-8.24-4.74-9.2-1.54-19.88-5.64-26-3.85S131.41,155.52,131.41,155.52Z"/><g id="_Groupe_" data-name="&lt;Groupe&gt;"><path id="_Tracé_8" data-name="&lt;Tracé&gt;" class="cls-8" d="M178,183.08s-3.84-12.64-10.91-15.61c-7.79-3.28-26.28-2.08-32.62,11.39,0,0,11.47,7.6,21.74,6.56S170.3,183.08,178,183.08Z"/><path id="_Tracé_9" data-name="&lt;Tracé&gt;" class="cls-9" d="M136.72,178.17s6.95-11.22,20.54-10.7,12.19,4.36,18.54,13.34c0,0-3-.22-10.54,1.5S142.8,183.07,136.72,178.17Z"/><path id="_Tracé_10" data-name="&lt;Tracé&gt;" class="cls-10" d="M147.88,169.09s-4,5.91.5,13.35c0,0,10.34,1.48,15.69.18,0,0,7.4-5.15,2.81-13.68C166.88,168.94,155.38,165,147.88,169.09Z"/><ellipse id="_Tracé_11" data-name="&lt;Tracé&gt;" class="cls-11" cx="157.65" cy="174.78" rx="3.79" ry="4.34"/><path id="_Tracé_12" data-name="&lt;Tracé&gt;" class="cls-12" d="M167.69,179.12l-6.25-4.34h0l7.28-2.49S170.78,175.13,167.69,179.12Z"/><path id="_Tracé_13" data-name="&lt;Tracé&gt;" class="cls-13" d="M174.49,181.55s-2-1.31-.49-2.39,2.73,2.15,2.73,2.15Z"/></g><path id="_Tracé_14" data-name="&lt;Tracé&gt;" class="cls-7" d="M258,155.52A30,30,0,0,0,240,153.2c-10.34,1.79-25.74,4.65-29.14,4.29,0,0-.66-3.31,8.24-4.74,9.2-1.49,19.87-5.64,26-3.85S258,155.52,258,155.52Z"/><g id="_Groupe_2" data-name="&lt;Groupe&gt;"><path id="_Tracé_15" data-name="&lt;Tracé&gt;" class="cls-8" d="M208,183.08s3.85-12.64,10.92-15.61c7.79-3.28,26.28-2.08,32.62,11.39,0,0-11.47,7.6-21.74,6.56S215.72,183.08,208,183.08Z"/><path id="_Tracé_16" data-name="&lt;Tracé&gt;" class="cls-9" d="M249.3,178.17s-7-11.22-20.54-10.7-12.2,4.36-18.54,13.34c0,0,3-.22,10.54,1.5S243.22,183.07,249.3,178.17Z"/><path id="_Tracé_17" data-name="&lt;Tracé&gt;" class="cls-10" d="M238.14,169.09s4,5.91-.5,13.35c0,0-10.34,1.48-15.69.18,0,0-7.4-5.15-2.81-13.68C219.14,168.94,230.64,165,238.14,169.09Z"/><ellipse id="_Tracé_18" data-name="&lt;Tracé&gt;" class="cls-11" cx="228.37" cy="174.78" rx="3.79" ry="4.34"/><path id="_Tracé_19" data-name="&lt;Tracé&gt;" class="cls-12" d="M239.59,178.5,232,175.56h0l7.74-4S242.44,173.92,239.59,178.5Z"/><path id="_Tracé_20" data-name="&lt;Tracé&gt;" class="cls-13" d="M211.66,181.55s2-1.31.49-2.39-2.74,2.15-2.74,2.15Z"/></g><path id="_Tracé_21" data-name="&lt;Tracé&gt;" class="cls-14" d="M197.38,219.08s-1.33,4.17-4.48,4.17-4.85-4.17-4.85-4.17S192.81,225.17,197.38,219.08Z"/><path id="_Tracé_22" data-name="&lt;Tracé&gt;" class="cls-15" d="M180.81,217.73a6.77,6.77,0,0,1,7.24,1.35C186.62,220.21,180.81,217.73,180.81,217.73Z"/><path id="_Tracé_23" data-name="&lt;Tracé&gt;" class="cls-15" d="M204.62,217.73a6.77,6.77,0,0,0-7.24,1.35C198.81,220.21,204.62,217.73,204.62,217.73Z"/><g id="_Groupe_3" data-name="&lt;Groupe&gt;"><path class="cls-13" d="M176.64,217.19a6.05,6.05,0,0,1-2.82-3.34A10.18,10.18,0,0,0,176.64,217.19Z"/><path class="cls-13" d="M173.28,210.58s-1.09,6,5.53,7.72c0,0-5.59-2.6-5.53-7.72Z"/></g><g id="_Groupe_4" data-name="&lt;Groupe&gt;"><path class="cls-13" d="M208.53,217.18a10.09,10.09,0,0,0,2.81-3.3A6,6,0,0,1,208.53,217.18Z"/><path class="cls-13" d="M211.89,210.58c.06,5.12-5.53,7.72-5.53,7.72,6.62-1.75,5.53-7.72,5.53-7.72Z"/></g><path id="_Tracé_24" data-name="&lt;Tracé&gt;" class="cls-14" d="M173.85,209.17s2.58-4.17,7.15-2.37l4.86-18.87-6,15.89S174.3,206.36,173.85,209.17Z"/><g id="_Groupe_5" data-name="&lt;Groupe&gt;"><path id="_Tracé_25" data-name="&lt;Tracé&gt;" class="cls-16" d="M162.32,233.9s13.31,23.88,29.9,23.46,30.21-22,31-23.46c0,0-22.92-6.23-25.71-5s-6.06.71-9.4-.17S162.32,233.9,162.32,233.9Z"/><path id="_Tracé_26" data-name="&lt;Tracé&gt;" class="cls-12" d="M165.49,234.94s19.26,5.19,53.1,0c0,0-19,12.4-25.64,12.4S173.85,242,165.49,234.94Z"/><path id="_Tracé_27" data-name="&lt;Tracé&gt;" class="cls-17" d="M173.76,240.68s18.15,7.7,34.5.46c0,0-10.43,6.2-14.87,6.2C185.89,247.34,175.32,242.24,173.76,240.68Z"/></g><path id="_Tracé_28" data-name="&lt;Tracé&gt;" class="cls-4" d="M194.87,113.86s-22.75-3.34-36.49,3.86,7.24-25.3,7.24-25.3l18.81-4.93,9.79,2.69Z"/><path id="_Tracé_29" data-name="&lt;Tracé&gt;" class="cls-4" d="M194.89,113.86s22.75-3.34,36.49,3.86-7.24-25.3-7.24-25.3l-18.81-4.93-9.79,2.69Z"/><path id="_Tracé_30" data-name="&lt;Tracé&gt;" class="cls-7" d="M195,42.74C97,13.2,74.19,186,76,249.49S133.24,365,133.24,365s-9.42-29.3-5.84-107.29,10.71-112.44,33.94-143.83c30.78-41.58,33.66,0,33.66,0s2.45-41,33.54,0c23.59,31.11,30.27,65.83,33.85,143.83S256.55,365,256.55,365s55.56-52,57.35-115.49S293,13.2,195,42.74Z"/></g></g><circle id="_Tracé_31" data-name="&lt;Tracé&gt;" class="cls-12" cx="195" cy="423" r="59"/><g id="_Groupe_6" data-name="&lt;Groupe&gt;"><rect id="_Rectangle_2" data-name="&lt;Rectangle&gt;" class="cls-12" x="156.95" y="396.23" width="78.4" height="50.48" transform="translate(-0.53 0.25) rotate(-0.07)"/><rect id="_Rectangle_3" data-name="&lt;Rectangle&gt;" class="cls-18" x="157.43" y="395.53" width="78.02" height="6.26" transform="translate(-0.51 0.25) rotate(-0.07)"/><rect id="_Rectangle_4" data-name="&lt;Rectangle&gt;" class="cls-18" x="157" y="407.8" width="78.18" height="5.04" transform="translate(-0.52 0.25) rotate(-0.07)"/><rect id="_Rectangle_5" data-name="&lt;Rectangle&gt;" class="cls-18" x="157.19" y="419.81" width="78.02" height="5.04" transform="translate(-0.54 0.25) rotate(-0.07)"/><rect id="_Rectangle_6" data-name="&lt;Rectangle&gt;" class="cls-18" x="157.6" y="430.6" width="78.02" height="5.04" transform="translate(-0.55 0.25) rotate(-0.07)"/><rect id="_Rectangle_7" data-name="&lt;Rectangle&gt;" class="cls-18" x="157.22" y="441.82" width="78.02" height="4.96" transform="translate(-0.56 0.25) rotate(-0.07)"/><polyline id="_Tracé_32" data-name="&lt;Tracé&gt;" class="cls-19" points="157.43 488.79 156.92 396.28 235.1 395.84 235.38 446.66 157.2 446.98"/><rect id="_Rectangle_8" data-name="&lt;Rectangle&gt;" class="cls-5" x="156.94" y="396.25" width="39.68" height="28.65" transform="translate(-0.52 0.22) rotate(-0.07)"/></g></svg>