<svg id="Calque_1" data-name="Calque 1" xmlns="http://www.w3.org/2000/svg" xmlns:xlink="http://www.w3.org/1999/xlink" viewBox="0 0 375 497"><defs><style>.cls-1,.cls-17{fill:none;}.cls-2{clip-path:url(#clip-path);}.cls-3,.cls-5{fill:#fdd5c4;}.cls-3,.cls-4,.cls-5,.cls-8{stroke:#fcaf97;}.cls-10,.cls-11,.cls-14,.cls-17,.cls-3,.cls-4,.cls-5,.cls-8,.cls-9{stroke-miterlimit:10;}.cls-3{stroke-width:2px;}.cls-4,.cls-8{fill:#fcaf97;}.cls-4{stroke-width:0.47px;}.cls-6{fill:#2e6b24;}.cls-7{fill:#3a3332;}.cls-10,.cls-11,.cls-8,.cls-9{stroke-width:0.97px;}.cls-12,.cls-9{fill:#fff;}.cls-9{stroke:#fff;}.cls-10{fill:#254549;stroke:#254549;}.cls-11{stroke:#000;}.cls-13,.cls-14{fill:#cc725a;}.cls-14{stroke:#cc725a;stroke-width:0.94px;}.cls-15{fill:#f49ab6;}.cls-16{fill:#3f3f3f;}.cls-17{stroke:#2c5ca7;stroke-linecap:round;stroke-width:0.88px;}.cls-18{fill:#f43737;}</style><clipPath id="clip-path"><rect id="_Rectangle_" data-name="&lt;Rectangle&gt;" class="cls-1" width="375" height="497"/></clipPath></defs><title>japanese-girl</title><path id="_Tracé_" data-name="&lt;Tracé&gt;" d="M111.32,209.41S91,279,85.67,334c-5.73,59.09,216.66,3.33,216.66,3.33S287.75,262.5,271.25,200C256.09,142.57,111.32,209.41,111.32,209.41Z"/><g id="_Ecrêter_le_groupe_" data-name="&lt;Ecrêter le groupe&gt;"><g class="cls-2"><ellipse id="_Tracé_2" data-name="&lt;Tracé&gt;" class="cls-3" cx="273.26" cy="193.26" rx="22.68" ry="13.8" transform="matrix(0.19, -0.98, 0.98, 0.19, 32.37, 425.61)"/><path id="_Tracé_3" data-name="&lt;Tracé&gt;" class="cls-4" d="M284.25,188.94s.65-12.63-7.84-13.28C276.41,175.66,283.93,182.67,284.25,188.94Z"/><path id="_Tracé_4" data-name="&lt;Tracé&gt;" class="cls-4" d="M268.56,205.74s.36-11.94,0-13.43.36,1.49.36,1.49S278.64,195.89,268.56,205.74Z"/><path id="_Tracé_5" data-name="&lt;Tracé&gt;" class="cls-5" d="M322.8,418.5s-4.83,86-3.64,96.16,12.61,97.83,13.21,131.84h-37.3s-15.95-84.91-14-129.66c1.74-40.64-1.2-98.34-1.2-98.34Z"/><path id="_Tracé_6" data-name="&lt;Tracé&gt;" class="cls-5" d="M61.42,418.5s4.83,86,3.64,96.16S52.45,612.49,51.85,646.5h37.3s15.95-84.91,14-129.66c-1.74-40.64,1.2-98.34,1.2-98.34Z"/><path id="_Tracé_7" data-name="&lt;Tracé&gt;" class="cls-6" d="M214.21,640H100.53s10.74-83.51,11.34-122.3-11.63-89.35-11.63-89.35-53.7-11.14-53.4-14.61,9.57-72.95,16.73-83.45,61.5-21.13,69.56-24.71,9.26-2.58,9.26-2.58H243.07s1.21-1,9.27,2.57,62.4,14.07,69.56,24.57,16.43,80,16.73,83.51-53.4,14.61-53.4,14.61S273,478.9,273.6,517.69,284.94,640,284.94,640H214.21Z"/><path id="_Tracé_8" data-name="&lt;Tracé&gt;" class="cls-5" d="M226.93,249.51s-9,41.18,0,46.55a192.3,192.3,0,0,0,18.35,9.54s3.14,37.9-53,37.9h.25c-56.17,0-53-37.9-53-37.9a136.92,136.92,0,0,0,18.35-9c9-5.38,0-46.81,0-46.81"/><ellipse id="_Tracé_9" data-name="&lt;Tracé&gt;" class="cls-3" cx="113.46" cy="193.26" rx="13.8" ry="22.68" transform="translate(-34.1 24.59) rotate(-10.76)"/><path id="_Tracé_10" data-name="&lt;Tracé&gt;" class="cls-4" d="M102.15,188.94s-.66-12.63,7.84-13.28C110,175.66,102.46,182.67,102.15,188.94Z"/><path id="_Tracé_11" data-name="&lt;Tracé&gt;" class="cls-4" d="M116.9,205.74s-.37-11.94,0-13.43-.37,1.49-.37,1.49S106.81,195.89,116.9,205.74Z"/><path id="_Tracé_12" data-name="&lt;Tracé&gt;" class="cls-3" d="M268.79,133.32s-2.48,82.62-6.6,93.74S244.75,257,219.34,275c-10.92,7-26.37,7-26.37,7h-.21s-15.45,0-26.37-7c-24.39-18-38.74-36.71-42.86-47.84s-6.59-93.79-6.59-93.79,8.46-48.23,76.14-48.23S268.79,133.32,268.79,133.32Z"/><path id="_Tracé_13" data-name="&lt;Tracé&gt;" class="cls-7" d="M131.41,159.52a30,30,0,0,1,18-2.32c10.34,1.79,25.74,4.65,29.15,4.29,0,0,.65-3.26-8.24-4.74-9.2-1.54-19.88-5.64-26-3.85S131.41,159.52,131.41,159.52Z"/><g id="_Groupe_" data-name="&lt;Groupe&gt;"><path id="_Tracé_14" data-name="&lt;Tracé&gt;" class="cls-8" d="M178,183.08s-3.84-12.64-10.91-15.61c-7.79-3.28-26.28-2.08-32.62,11.39,0,0,11.47,7.6,21.74,6.56S170.3,183.08,178,183.08Z"/><path id="_Tracé_15" data-name="&lt;Tracé&gt;" class="cls-9" d="M136.72,178.17s6.95-11.22,20.54-10.7,12.19,4.36,18.54,13.34c0,0-3-.22-10.54,1.5S142.8,183.07,136.72,178.17Z"/><path id="_Tracé_16" data-name="&lt;Tracé&gt;" class="cls-10" d="M147.88,169.09s-4,5.91.5,13.35c0,0,10.34,1.48,15.69.18,0,0,7.4-5.15,2.81-13.68C166.88,168.94,155.38,165,147.88,169.09Z"/><ellipse id="_Tracé_17" data-name="&lt;Tracé&gt;" class="cls-11" cx="157.65" cy="174.78" rx="3.79" ry="4.34"/><path id="_Tracé_18" data-name="&lt;Tracé&gt;" class="cls-12" d="M167.69,179.12l-6.25-4.34h0l7.28-2.49S170.78,175.13,167.69,179.12Z"/><path id="_Tracé_19" data-name="&lt;Tracé&gt;" class="cls-13" d="M174.49,181.55s-2-1.31-.49-2.39,2.73,2.15,2.73,2.15Z"/></g><path id="_Tracé_20" data-name="&lt;Tracé&gt;" class="cls-7" d="M258,159.52A30,30,0,0,0,240,157.2c-10.34,1.79-25.74,4.65-29.14,4.29,0,0-.66-3.31,8.24-4.74,9.2-1.49,19.87-5.64,26-3.85S258,159.52,258,159.52Z"/><g id="_Groupe_2" data-name="&lt;Groupe&gt;"><path id="_Tracé_21" data-name="&lt;Tracé&gt;" class="cls-8" d="M208,183.08s3.85-12.64,10.92-15.61c7.79-3.28,26.28-2.08,32.62,11.39,0,0-11.47,7.6-21.74,6.56S215.72,183.08,208,183.08Z"/><path id="_Tracé_22" data-name="&lt;Tracé&gt;" class="cls-9" d="M249.3,178.17s-7-11.22-20.54-10.7-12.2,4.36-18.54,13.34c0,0,3-.22,10.54,1.5S243.22,183.07,249.3,178.17Z"/><path id="_Tracé_23" data-name="&lt;Tracé&gt;" class="cls-10" d="M238.14,169.09s4,5.91-.5,13.35c0,0-10.34,1.48-15.69.18,0,0-7.4-5.15-2.81-13.68C219.14,168.94,230.64,165,238.14,169.09Z"/><ellipse id="_Tracé_24" data-name="&lt;Tracé&gt;" class="cls-11" cx="228.37" cy="174.78" rx="3.79" ry="4.34"/><path id="_Tracé_25" data-name="&lt;Tracé&gt;" class="cls-12" d="M239.59,178.5,232,175.56h0l7.74-4S242.44,173.92,239.59,178.5Z"/><path id="_Tracé_26" data-name="&lt;Tracé&gt;" class="cls-13" d="M211.66,181.55s2-1.31.49-2.39-2.74,2.15-2.74,2.15Z"/></g><path id="_Tracé_27" data-name="&lt;Tracé&gt;" class="cls-4" d="M197.38,219.08s-1.33,4.17-4.48,4.17-4.85-4.17-4.85-4.17S192.81,225.17,197.38,219.08Z"/><path id="_Tracé_28" data-name="&lt;Tracé&gt;" class="cls-14" d="M180.81,217.73a6.77,6.77,0,0,1,7.24,1.35C186.62,220.21,180.81,217.73,180.81,217.73Z"/><path id="_Tracé_29" data-name="&lt;Tracé&gt;" class="cls-14" d="M204.62,217.73a6.77,6.77,0,0,0-7.24,1.35C198.81,220.21,204.62,217.73,204.62,217.73Z"/><g id="_Groupe_3" data-name="&lt;Groupe&gt;"><path class="cls-13" d="M176.64,217.19a6.05,6.05,0,0,1-2.82-3.34A10.18,10.18,0,0,0,176.64,217.19Z"/><path class="cls-13" d="M173.28,210.58s-1.09,6,5.53,7.72c0,0-5.59-2.6-5.53-7.72Z"/></g><g id="_Groupe_4" data-name="&lt;Groupe&gt;"><path class="cls-13" d="M208.53,217.18a10.09,10.09,0,0,0,2.81-3.3A6,6,0,0,1,208.53,217.18Z"/><path class="cls-13" d="M211.89,210.58c.06,5.12-5.53,7.72-5.53,7.72,6.62-1.75,5.53-7.72,5.53-7.72Z"/></g><path id="_Tracé_30" data-name="&lt;Tracé&gt;" class="cls-4" d="M173.85,209.17s2.58-4.17,7.15-2.37l4.86-18.87-6,15.89S174.3,206.36,173.85,209.17Z"/><g id="_Groupe_5" data-name="&lt;Groupe&gt;"><path id="_Tracé_31" data-name="&lt;Tracé&gt;" class="cls-15" d="M162.32,233.9s13.31,23.88,29.9,23.46,30.21-22,31-23.46c0,0-22.92-6.23-25.71-5s-6.06.71-9.4-.17S162.32,233.9,162.32,233.9Z"/><path id="_Tracé_32" data-name="&lt;Tracé&gt;" class="cls-12" d="M165.49,234.94s19.26,5.19,53.1,0c0,0-19,12.4-25.64,12.4S173.85,242,165.49,234.94Z"/><path id="_Tracé_33" data-name="&lt;Tracé&gt;" class="cls-16" d="M173.76,240.68s18.15,7.7,34.5.46c0,0-10.43,6.2-14.87,6.2C185.89,247.34,175.32,242.24,173.76,240.68Z"/></g></g></g><circle id="_Tracé_34" data-name="&lt;Tracé&gt;" class="cls-12" cx="195" cy="423" r="59"/><g id="_Groupe_6" data-name="&lt;Groupe&gt;"><rect id="_Rectangle_2" data-name="&lt;Rectangle&gt;" class="cls-12" x="156.95" y="395.23" width="79.91" height="51.46" transform="translate(-0.53 0.25) rotate(-0.07)"/><polyline id="_Tracé_35" data-name="&lt;Tracé&gt;" class="cls-17" points="157.32 468.8 156.92 395.28 236.6 394.84 236.89 446.64 157.21 446.97"/></g><circle id="_Tracé_36" data-name="&lt;Tracé&gt;" class="cls-18" cx="197.23" cy="421.54" r="14.06"/><path id="_Tracé_37" data-name="&lt;Tracé&gt;" class="cls-7" d="M283.2,118c3-37.27-45.32-108.79-136.61-61.54,0,0-71.42-5.77-27.69,133.09,0,0,3.39-39.23,9.95-50.42S150.93,116.37,151.59,97c0,0,.62,6.53,11.46,11.38,0,0,47.63,19.88,76,11.85,20.56,4.32,22.06,22,22.06,22s6.57,33.71,4.6,50.5C265.67,192.67,280.33,153.75,283.2,118Z"/><path id="_Tracé_38" data-name="&lt;Tracé&gt;" class="cls-7" d="M151.59,97s57.17,64.89,116.21,64c0,0,19.07-60-11.22-67.35S164.54,72.2,151.59,97Z"/><path id="_Tracé_39" data-name="&lt;Tracé&gt;" class="cls-7" d="M174.5,110.34s-43.13,27.3-50,41.5c-7.5,15.49-8.5-35.1-8.5-35.1l11.5-35.16,15-9.08,34.33,40.82"/><path id="_Tracé_40" data-name="&lt;Tracé&gt;" d="M148.15,81.58s27,47.33,57.69,57.51C205.84,139.09,142.79,122.48,148.15,81.58Z"/></svg>