<svg id="Calque_1" data-name="Calque 1" xmlns="http://www.w3.org/2000/svg" xmlns:xlink="http://www.w3.org/1999/xlink" viewBox="0 0 375 497"><defs><style>.cls-1,.cls-17{fill:none;}.cls-2{clip-path:url(#clip-path);}.cls-3{fill:#3a3332;}.cls-4,.cls-6{fill:#fdd5c4;}.cls-4,.cls-5,.cls-6,.cls-8{stroke:#fcaf97;}.cls-10,.cls-11,.cls-14,.cls-17,.cls-4,.cls-5,.cls-6,.cls-8,.cls-9{stroke-miterlimit:10;}.cls-4{stroke-width:2px;}.cls-5,.cls-8{fill:#fcaf97;}.cls-5{stroke-width:0.47px;}.cls-7{fill:#a38400;}.cls-10,.cls-11,.cls-8,.cls-9{stroke-width:0.97px;}.cls-12,.cls-9{fill:#fff;}.cls-9{stroke:#fff;}.cls-10{fill:#244729;stroke:#244729;}.cls-11{stroke:#000;}.cls-13,.cls-14{fill:#cc725a;}.cls-14{stroke:#cc725a;stroke-width:0.94px;}.cls-15{fill:#f46262;}.cls-16{fill:#3f3f3f;}.cls-17{stroke:#2c5ca7;stroke-linecap:round;stroke-width:0.85px;}.cls-18{fill:#04479f;}.cls-19{fill:#f4374e;}.cls-20{fill:#0e0e0e;}.cls-21{fill:#080808;}.cls-22{fill:#0d0d0d;}.cls-23{fill:#0f0f0f;}.cls-24{fill:#090909;}.cls-25{fill:#0a0a0a;}</style><clipPath id="clip-path"><rect id="_Rectangle_" data-name="&lt;Rectangle&gt;" class="cls-1" width="375" height="497"/></clipPath></defs><title>korean-girl</title><g id="_Ecrêter_le_groupe_" data-name="&lt;Ecrêter le groupe&gt;"><g class="cls-2"><path id="_Tracé_" data-name="&lt;Tracé&gt;" class="cls-3" d="M107.36,94.9S59.33,204,94.91,316.83c40.92,129.75,199.93,0,199.93,0s23.83-192.16-20.59-240.59C242.64,41.78,107.36,94.9,107.36,94.9Z"/><ellipse id="_Tracé_2" data-name="&lt;Tracé&gt;" class="cls-4" cx="273.26" cy="193.26" rx="22.68" ry="13.8" transform="matrix(0.19, -0.98, 0.98, 0.19, 32.37, 425.61)"/><path id="_Tracé_3" data-name="&lt;Tracé&gt;" class="cls-5" d="M284.25,188.94s.65-12.63-7.84-13.28C276.41,175.66,283.93,182.67,284.25,188.94Z"/><path id="_Tracé_4" data-name="&lt;Tracé&gt;" class="cls-5" d="M268.56,205.74s.36-11.94,0-13.43.36,1.49.36,1.49S278.64,195.89,268.56,205.74Z"/><path id="_Tracé_5" data-name="&lt;Tracé&gt;" class="cls-6" d="M322.8,418.5s-4.83,86-3.64,96.16,12.61,97.83,13.21,131.84h-37.3s-15.95-84.91-14-129.66c1.74-40.64-1.2-98.34-1.2-98.34Z"/><path id="_Tracé_6" data-name="&lt;Tracé&gt;" class="cls-6" d="M61.42,418.5s4.83,86,3.64,96.16S52.45,612.49,51.85,646.5h37.3s15.95-84.91,14-129.66c-1.74-40.64,1.2-98.34,1.2-98.34Z"/><path id="_Tracé_7" data-name="&lt;Tracé&gt;" class="cls-7" d="M214.21,640H100.53s10.74-83.51,11.34-122.3-11.63-89.35-11.63-89.35-53.7-11.14-53.4-14.61,9.57-72.95,16.73-83.45,61.5-21.13,69.56-24.71,9.26-2.58,9.26-2.58H243.07s1.21-1,9.27,2.57,62.4,14.07,69.56,24.57,16.43,80,16.73,83.51-53.4,14.61-53.4,14.61S273,478.9,273.6,517.69,284.94,640,284.94,640H214.21Z"/><path id="_Tracé_8" data-name="&lt;Tracé&gt;" class="cls-6" d="M226.93,249.51s-9,41.18,0,46.55a192.3,192.3,0,0,0,18.35,9.54s3.14,37.9-53,37.9h.25c-56.17,0-53-37.9-53-37.9a136.92,136.92,0,0,0,18.35-9c9-5.38,0-46.81,0-46.81"/><ellipse id="_Tracé_9" data-name="&lt;Tracé&gt;" class="cls-4" cx="113.46" cy="193.26" rx="13.8" ry="22.68" transform="translate(-34.1 24.59) rotate(-10.76)"/><path id="_Tracé_10" data-name="&lt;Tracé&gt;" class="cls-5" d="M102.15,188.94s-.66-12.63,7.84-13.28C110,175.66,102.46,182.67,102.15,188.94Z"/><path id="_Tracé_11" data-name="&lt;Tracé&gt;" class="cls-5" d="M116.9,205.74s-.37-11.94,0-13.43-.37,1.49-.37,1.49S106.81,195.89,116.9,205.74Z"/><path id="_Tracé_12" data-name="&lt;Tracé&gt;" class="cls-4" d="M268.79,133.32s-2.48,82.62-6.6,93.74S244.75,257,219.34,275c-10.92,7-26.37,7-26.37,7h-.21s-15.45,0-26.37-7c-24.39-18-38.74-36.71-42.86-47.84s-6.59-93.79-6.59-93.79,8.46-48.23,76.14-48.23S268.79,133.32,268.79,133.32Z"/><path id="_Tracé_13" data-name="&lt;Tracé&gt;" class="cls-3" d="M131.41,159.52a30,30,0,0,1,18-2.32c10.34,1.79,25.74,4.65,29.15,4.29,0,0,.65-3.26-8.24-4.74-9.2-1.54-19.88-5.64-26-3.85S131.41,159.52,131.41,159.52Z"/><g id="_Groupe_" data-name="&lt;Groupe&gt;"><path id="_Tracé_14" data-name="&lt;Tracé&gt;" class="cls-8" d="M178,183.08s-3.84-12.64-10.91-15.61c-7.79-3.28-26.28-2.08-32.62,11.39,0,0,11.47,7.6,21.74,6.56S170.3,183.08,178,183.08Z"/><path id="_Tracé_15" data-name="&lt;Tracé&gt;" class="cls-9" d="M136.72,178.17s6.95-11.22,20.54-10.7,12.19,4.36,18.54,13.34c0,0-3-.22-10.54,1.5S142.8,183.07,136.72,178.17Z"/><path id="_Tracé_16" data-name="&lt;Tracé&gt;" class="cls-10" d="M147.88,169.09s-4,5.91.5,13.35c0,0,10.34,1.48,15.69.18,0,0,7.4-5.15,2.81-13.68C166.88,168.94,155.38,165,147.88,169.09Z"/><ellipse id="_Tracé_17" data-name="&lt;Tracé&gt;" class="cls-11" cx="157.65" cy="174.78" rx="3.79" ry="4.34"/><path id="_Tracé_18" data-name="&lt;Tracé&gt;" class="cls-12" d="M167.69,179.12l-6.25-4.34h0l7.28-2.49S170.78,175.13,167.69,179.12Z"/><path id="_Tracé_19" data-name="&lt;Tracé&gt;" class="cls-13" d="M174.49,181.55s-2-1.31-.49-2.39,2.73,2.15,2.73,2.15Z"/></g><path id="_Tracé_20" data-name="&lt;Tracé&gt;" class="cls-3" d="M258,159.52A30,30,0,0,0,240,157.2c-10.34,1.79-25.74,4.65-29.14,4.29,0,0-.66-3.31,8.24-4.74,9.2-1.49,19.87-5.64,26-3.85S258,159.52,258,159.52Z"/><g id="_Groupe_2" data-name="&lt;Groupe&gt;"><path id="_Tracé_21" data-name="&lt;Tracé&gt;" class="cls-8" d="M208,183.08s3.85-12.64,10.92-15.61c7.79-3.28,26.28-2.08,32.62,11.39,0,0-11.47,7.6-21.74,6.56S215.72,183.08,208,183.08Z"/><path id="_Tracé_22" data-name="&lt;Tracé&gt;" class="cls-9" d="M249.3,178.17s-7-11.22-20.54-10.7-12.2,4.36-18.54,13.34c0,0,3-.22,10.54,1.5S243.22,183.07,249.3,178.17Z"/><path id="_Tracé_23" data-name="&lt;Tracé&gt;" class="cls-10" d="M238.14,169.09s4,5.91-.5,13.35c0,0-10.34,1.48-15.69.18,0,0-7.4-5.15-2.81-13.68C219.14,168.94,230.64,165,238.14,169.09Z"/><ellipse id="_Tracé_24" data-name="&lt;Tracé&gt;" class="cls-11" cx="228.37" cy="174.78" rx="3.79" ry="4.34"/><path id="_Tracé_25" data-name="&lt;Tracé&gt;" class="cls-12" d="M239.59,178.5,232,175.56h0l7.74-4S242.44,173.92,239.59,178.5Z"/><path id="_Tracé_26" data-name="&lt;Tracé&gt;" class="cls-13" d="M211.66,181.55s2-1.31.49-2.39-2.74,2.15-2.74,2.15Z"/></g><path id="_Tracé_27" data-name="&lt;Tracé&gt;" class="cls-5" d="M197.38,219.08s-1.33,4.17-4.48,4.17-4.85-4.17-4.85-4.17S192.81,225.17,197.38,219.08Z"/><path id="_Tracé_28" data-name="&lt;Tracé&gt;" class="cls-14" d="M180.81,217.73a6.77,6.77,0,0,1,7.24,1.35C186.62,220.21,180.81,217.73,180.81,217.73Z"/><path id="_Tracé_29" data-name="&lt;Tracé&gt;" class="cls-14" d="M204.62,217.73a6.77,6.77,0,0,0-7.24,1.35C198.81,220.21,204.62,217.73,204.62,217.73Z"/><g id="_Groupe_3" data-name="&lt;Groupe&gt;"><path class="cls-13" d="M176.64,217.19a6.05,6.05,0,0,1-2.82-3.34A10.18,10.18,0,0,0,176.64,217.19Z"/><path class="cls-13" d="M173.28,210.58s-1.09,6,5.53,7.72c0,0-5.59-2.6-5.53-7.72Z"/></g><g id="_Groupe_4" data-name="&lt;Groupe&gt;"><path class="cls-13" d="M208.53,217.18a10.09,10.09,0,0,0,2.81-3.3A6,6,0,0,1,208.53,217.18Z"/><path class="cls-13" d="M211.89,210.58c.06,5.12-5.53,7.72-5.53,7.72,6.62-1.75,5.53-7.72,5.53-7.72Z"/></g><path id="_Tracé_30" data-name="&lt;Tracé&gt;" class="cls-5" d="M173.85,209.17s2.58-4.17,7.15-2.37l4.86-18.87-6,15.89S174.3,206.36,173.85,209.17Z"/><g id="_Groupe_5" data-name="&lt;Groupe&gt;"><path id="_Tracé_31" data-name="&lt;Tracé&gt;" class="cls-15" d="M162.32,233.9s13.31,23.88,29.9,23.46,30.21-22,31-23.46c0,0-22.92-6.23-25.71-5s-6.06.71-9.4-.17S162.32,233.9,162.32,233.9Z"/><path id="_Tracé_32" data-name="&lt;Tracé&gt;" class="cls-12" d="M165.49,234.94s19.26,5.19,53.1,0c0,0-19,12.4-25.64,12.4S173.85,242,165.49,234.94Z"/><path id="_Tracé_33" data-name="&lt;Tracé&gt;" class="cls-16" d="M173.76,240.68s18.15,7.7,34.5.46c0,0-10.43,6.2-14.87,6.2C185.89,247.34,175.32,242.24,173.76,240.68Z"/></g><path id="_Tracé_34" data-name="&lt;Tracé&gt;" class="cls-3" d="M238.47,56.44C147.18,9.19,98.87,80.71,101.86,118c2.86,35.77,17.53,74.69,17.53,74.69-1-8.46.18-21.21,1.59-31.78,42.18-1.28,82.8-34.85,101.6-52.82C232.87,103.26,233.47,97,233.47,97c.65,19.41,16.17,31,22.73,42.15s10,50.42,10,50.42C309.89,50.67,238.47,56.44,238.47,56.44Z"/><path id="_Tracé_35" data-name="&lt;Tracé&gt;" d="M236.91,81.58s-27,47.33-57.69,57.51C179.22,139.09,242.27,122.48,236.91,81.58Z"/></g></g><circle id="_Tracé_36" data-name="&lt;Tracé&gt;" class="cls-12" cx="195" cy="423" r="59"/><g id="_Groupe_6" data-name="&lt;Groupe&gt;"><rect id="_Rectangle_2" data-name="&lt;Rectangle&gt;" class="cls-12" x="156.95" y="398.35" width="76.52" height="49.28" transform="translate(-0.54 0.25) rotate(-0.07)"/><polyline id="_Tracé_37" data-name="&lt;Tracé&gt;" class="cls-17" points="157.31 468.8 156.92 398.4 233.23 397.98 233.5 447.58 157.19 447.89"/></g><g id="_Groupe_7" data-name="&lt;Groupe&gt;"><path id="_Tracé_38" data-name="&lt;Tracé&gt;" class="cls-18" d="M206,426.79a11.44,11.44,0,0,1-11.11,7.55,11.82,11.82,0,0,1-11.11-8.95c-.54-2.35-.73-4.72.57-6.95a6.7,6.7,0,0,0,2,5.21,6,6,0,0,0,9-1.3,5.49,5.49,0,0,1,6.2-2.22,5.58,5.58,0,0,1,4.33,4.79A16.47,16.47,0,0,1,206,426.79Z"/><path id="_Tracé_39" data-name="&lt;Tracé&gt;" class="cls-19" d="M206,426.79a16.47,16.47,0,0,0-.12-1.87,5.58,5.58,0,0,0-4.33-4.79,5.49,5.49,0,0,0-6.2,2.22,6,6,0,0,1-9,1.3,6.7,6.7,0,0,1-2-5.21c.29-1.92,1.55-3.24,2.86-4.49a11.72,11.72,0,0,1,19.1,12.31A4.07,4.07,0,0,1,206,426.79Z"/><path id="_Tracé_40" data-name="&lt;Tracé&gt;" class="cls-20" d="M181.52,406.57l-.5.76c-1.79,2.69-3.59,5.37-5.37,8.07-.35.53-.6.92-1.28.37-.52-.41-1-.61-.43-1.42,1.91-2.73,3.72-5.53,5.57-8.3.19-.29.36-.77.81-.48S181.27,406,181.52,406.57Z"/><path id="_Tracé_41" data-name="&lt;Tracé&gt;" class="cls-20" d="M217.32,415c-.09.59-.71.65-1.07,1s-.64,0-.83-.32c-1.91-2.85-3.79-5.73-5.72-8.57-.39-.56-.21-.85.29-1.08s.76-.92,1.27-.16q3,4.41,5.9,8.84A2.86,2.86,0,0,1,217.32,415Z"/><path id="_Tracé_42" data-name="&lt;Tracé&gt;" class="cls-21" d="M179.12,404.83c-.22.36-.37.62-.54.88-1.79,2.68-3.61,5.34-5.36,8-.43.68-.75.78-1.41.31s-.77-.66-.31-1.32c1.88-2.74,3.7-5.52,5.55-8.29.19-.27.32-.76.8-.51A11.8,11.8,0,0,1,179.12,404.83Z"/><path id="_Tracé_43" data-name="&lt;Tracé&gt;" class="cls-21" d="M179,440.51c-.08.55-.64.61-1,.9s-.64.16-.88-.21c-1.93-2.9-3.84-5.8-5.8-8.68-.43-.64,0-.85.4-1s.7-.86,1.14-.2c2,3,4,6,6,8.94A2.09,2.09,0,0,1,179,440.51Z"/><path id="_Tracé_44" data-name="&lt;Tracé&gt;" class="cls-20" d="M177.36,427.77c.34-.06.44.22.57.43,1.92,2.85,3.8,5.73,5.75,8.57.47.69,0,.89-.41,1.15s-.75.76-1.24,0c-1.88-2.88-3.81-5.72-5.71-8.59C176,428.81,176.68,427.8,177.36,427.77Z"/><path id="_Tracé_45" data-name="&lt;Tracé&gt;" class="cls-22" d="M184,408.23l-.46.68c-1.79,2.69-3.6,5.37-5.36,8.08-.42.65-.71.84-1.43.33s-.68-.79-.24-1.44c1.86-2.71,3.65-5.46,5.48-8.18.21-.3.35-.89.92-.44C183.25,407.56,183.81,407.67,184,408.23Z"/><path id="_Tracé_46" data-name="&lt;Tracé&gt;" class="cls-20" d="M178.53,434.67c.07.05.24.1.31.21.87,1.28,1.79,2.54,2.56,3.88.33.58-.49.64-.78.94s-.68.4-1-.1c-.69-1.09-1.44-2.14-2.14-3.23C177.08,435.76,177.72,434.69,178.53,434.67Z"/><path id="_Tracé_47" data-name="&lt;Tracé&gt;" class="cls-23" d="M213.83,435.79l-.6.89c-.57.87-1.18,1.71-1.7,2.6-.4.68-.73.8-1.44.32s-.68-.84-.23-1.45c.71-1,1.33-2,2-3,.18-.26.32-.77.8-.41S213.61,435.22,213.83,435.79Z"/><path id="_Tracé_48" data-name="&lt;Tracé&gt;" class="cls-24" d="M216.28,408.06c-.17.51-.73.61-1.09.93s-.62.05-.83-.26c-.65-1-1.29-2-2-3-.46-.64-.6-1,.22-1.57s1-.14,1.42.43C214.73,405.76,215.49,406.87,216.28,408.06Z"/><path id="_Tracé_49" data-name="&lt;Tracé&gt;" class="cls-23" d="M178,433.49c-.07.61-.62.67-1,1s-.62.3-.89-.12c-.77-1.16-1.55-2.32-2.33-3.47-.2-.29-.3-.59.06-.78s1-.95,1.27-.62C176.17,430.73,177,432.14,178,433.49Z"/><path id="_Tracé_50" data-name="&lt;Tracé&gt;" class="cls-23" d="M217.34,430.52c-.74,1.11-1.55,2.19-2.2,3.36-.51.91-1,.84-1.68.29-.46-.35-.57-.6-.21-1.11.76-1,1.43-2.15,2.16-3.22.18-.26.35-.73.82-.34S217.19,429.9,217.34,430.52Z"/><path id="_Tracé_51" data-name="&lt;Tracé&gt;" class="cls-24" d="M216.37,437.33c-1,1.47-1.9,2.88-2.94,4.15-.32.4-.76-.31-1.16-.48s-.44-.49-.18-.87c.79-1.15,1.55-2.32,2.33-3.48.18-.26.35-.52.73-.22S215.94,437,216.37,437.33Z"/><path id="_Tracé_52" data-name="&lt;Tracé&gt;" class="cls-20" d="M208.31,407.1c.46.06.54.41.71.65.64.93,1.23,1.91,1.91,2.82.47.64.46,1-.24,1.48s-1.05.26-1.43-.36c-.6-1-1.28-1.89-1.88-2.85-.15-.26-.66-.52-.26-.89A8.19,8.19,0,0,1,208.31,407.1Z"/><path id="_Tracé_53" data-name="&lt;Tracé&gt;" class="cls-22" d="M210.23,433.08a1.17,1.17,0,0,1,.74,1.7c-.64,1-1.35,2-2,3-.4.68-.76.64-1.32.2s-.95-.56-.4-1.27c.75-1,1.39-2.06,2.09-3.08C209.54,433.38,209.64,433,210.23,433.08Z"/><path id="_Tracé_54" data-name="&lt;Tracé&gt;" class="cls-25" d="M219.78,413.26c-.11.62-.64.71-1,1a.51.51,0,0,1-.87-.13c-.76-1.16-1.54-2.32-2.31-3.48-.16-.25-.42-.54,0-.76s1-1,1.29-.59C218,410.53,218.87,411.94,219.78,413.26Z"/><path id="_Tracé_55" data-name="&lt;Tracé&gt;" class="cls-23" d="M214.92,416.61c-.23.54-.76.71-1.18,1s-.63-.15-.81-.42c-.65-.93-1.25-1.9-1.91-2.83-.42-.6-.67-1,.17-1.57s1.13-.13,1.51.48c.58.92,1.19,1.81,1.79,2.72Z"/><path id="_Tracé_56" data-name="&lt;Tracé&gt;" class="cls-23" d="M213.63,427.76a6,6,0,0,1,1.15.87c.33.36-.15.63-.33.9-.61,1-1.31,1.87-1.86,2.86-.44.79-.8.66-1.44.24s-.73-.69-.25-1.31c.71-.95,1.32-2,2-3C213.05,428.12,213.13,427.76,213.63,427.76Z"/><path id="_Tracé_57" data-name="&lt;Tracé&gt;" class="cls-25" d="M216.8,436.34a13.35,13.35,0,0,1-1.21-.79c-.45-.36,0-.65.17-.91.7-1.09,1.45-2.14,2.13-3.23.38-.62.75-.37,1.11-.07s1.09.38.58,1.13c-.79,1.15-1.55,2.32-2.33,3.47A2.52,2.52,0,0,1,216.8,436.34Z"/></g></svg>